<svg width="15" height="29" viewBox="0 0 15 29" fill="none" xmlns="http://www.w3.org/2000/svg">
<path d="M12.9771 27.9571L0.345945 14.9994C0.124098 14.7718 -6.10352e-05 14.4665 -6.10352e-05 14.1487C-6.10352e-05 13.8309 0.124098 13.5256 0.345945 13.298L12.9771 0.335375C13.0804 0.229238 13.204 0.144879 13.3404 0.0872773C13.4769 0.0296757 13.6236 8.85572e-07 13.7717 8.85572e-07C13.9198 8.85572e-07 14.0665 0.0296757 14.2029 0.0872773C14.3394 0.144879 14.463 0.229238 14.5663 0.335375C14.7789 0.553038 14.8979 0.845235 14.8979 1.1495C14.8979 1.45377 14.7789 1.74596 14.5663 1.96363L2.68838 14.1487L14.5663 26.3313C14.7782 26.5489 14.8968 26.8405 14.8968 27.1442C14.8968 27.4479 14.7782 27.7396 14.5663 27.9571C14.463 28.0633 14.3394 28.1476 14.2029 28.2052C14.0665 28.2628 13.9198 28.2925 13.7717 28.2925C13.6236 28.2925 13.4769 28.2628 13.3404 28.2052C13.204 28.1476 13.0804 28.0633 12.9771 27.9571V27.9571Z" fill="white"/>
</svg>
